<svg width="86" height="32" viewBox="0 0 86 32" fill="none" xmlns="http://www.w3.org/2000/svg">
<path d="M41.8468 28.0651C42.38 28.0651 42.9017 28.0651 43.4001 28.0651C43.5276 28.0651 43.574 28.0998 43.6319 28.2041C44.7911 30.1036 46.5878 30.5785 48.6859 30.4627C49.6133 30.4164 50.4943 30.1963 51.2941 29.6982C52.2214 29.1307 52.7894 28.3315 52.9633 27.2659C53.0908 26.5014 53.1024 25.7138 53.1024 24.9609C53.1024 24.9261 53.0908 24.8798 53.0676 24.8335C52.801 25.0883 52.5692 25.3315 52.3142 25.5516C50.5638 26.9995 48.57 27.4164 46.3676 26.8605C43.203 26.0612 41.2093 22.9918 41.7309 19.7718C42.2641 16.5055 45.0693 14.2237 48.3846 14.3163C50.2045 14.3627 51.723 15.0692 53.0908 16.2043C53.6588 16.6792 53.937 17.3394 54.2268 17.9996C54.6093 18.8799 54.7716 19.795 54.76 20.7679C54.7021 22.3663 54.7252 23.9879 54.7021 25.5979C54.6905 26.3972 54.6209 27.1964 54.4007 27.984C53.9022 29.8025 52.6967 31.0071 50.9347 31.5515C48.5584 32.2928 46.2285 32.1538 44.0261 30.8449C42.9712 30.2079 42.38 29.2002 41.8468 28.0651ZM48.7671 25.5864C49.5205 25.5864 50.6681 25.3084 51.6186 24.4744C52.7778 23.5015 53.2067 22.1926 53.1951 20.7216C53.1835 19.2969 52.7083 18.046 51.6186 17.0962C49.4626 15.2314 46.101 15.5209 44.3506 17.8143C43.1219 19.3896 42.9017 21.1965 43.7826 23.0034C44.6636 24.8335 46.298 25.5979 48.7671 25.5864Z" fill="#4FBA5D"/>
<path d="M1.58874 16.795C2.02923 16.2622 2.43494 15.8568 2.92179 15.5093C4.0346 14.6869 5.28651 14.3278 6.65434 14.3278C8.54379 14.3394 10.0391 15.1155 11.3142 16.4707C13.0298 18.3123 13.3428 20.432 12.7748 22.7717C12.5082 23.872 11.859 24.7523 11.0476 25.5515C9.58705 26.9646 7.83669 27.5438 5.8545 27.37C4.0346 27.2079 2.50449 26.4318 1.31054 25.0651C0.835277 24.5323 0.603442 23.8373 0.383199 23.1771C0.12818 22.4589 -0.010921 21.7177 0.000670745 20.9416C0.0122625 17.3394 0.0122625 13.7719 0.000670745 10.1696C0.000670745 9.93798 0.0470378 9.82215 0.313648 9.84532C0.638217 9.88006 0.98597 9.8569 1.32213 9.84532C1.55397 9.83373 1.60033 9.90323 1.60033 10.1233C1.58874 12.0576 1.60033 14.0035 1.60033 15.9378C1.58874 16.1811 1.58874 16.4359 1.58874 16.795ZM1.49601 20.791C1.41486 23.6056 3.71003 25.9338 6.51523 25.8527C9.29726 25.7716 11.407 23.5477 11.3722 20.652C11.3374 17.9996 9.03065 15.7178 6.39932 15.7525C3.58252 15.822 1.44964 18.0112 1.49601 20.791Z" fill="#4FBA5D"/>
<path d="M61.0544 3.12736C63.025 3.12736 64.926 3.12736 66.7923 3.12736C67.0705 3.12736 67.1748 3.18527 67.1748 3.48643C67.1632 5.7914 67.1632 8.11953 67.1632 10.4361C67.1632 11.3048 67.6037 11.7218 68.4499 11.7218C70.6871 11.7218 72.9012 11.7102 75.1384 11.7334C75.857 11.7449 76.4482 11.2585 76.425 10.4593C76.3903 7.93421 76.3903 5.40917 76.425 2.87254C76.425 2.03858 75.8918 1.56369 75.1036 1.58685C73.8401 1.59844 72.5766 1.58685 71.3015 1.59844C71.0001 1.59844 70.9421 1.50577 70.9537 1.23937C70.9653 0.915053 70.9653 0.590736 70.9537 0.266419C70.9537 0.0926775 71.0001 0.0115967 71.1856 0.0115967C72.6461 0.0231794 74.1067 1.46208e-05 75.5557 0.0231802C76.9351 0.0579285 77.9783 1.12354 77.9783 2.50189C77.9783 5.28175 77.9783 8.05004 77.9783 10.8299C77.9783 12.2083 76.9583 13.297 75.5557 13.3086C73.0287 13.3434 70.4901 13.3434 67.9631 13.3086C66.5952 13.2739 65.4592 12.2893 65.4824 10.7488C65.494 8.86083 65.4824 6.99601 65.4824 5.1196C65.4824 4.72578 65.4824 4.72578 65.0767 4.72578C64.3696 4.72578 63.6625 4.72578 62.9554 4.72578C62.8511 4.72578 62.7352 4.73737 62.6425 4.6447C62.1672 4.14664 61.6224 3.66017 61.0544 3.12736Z" fill="#4FBA5D"/>
<path d="M79.4505 14.3278C83.0323 14.2699 86.023 17.3625 85.9998 20.9416C85.965 24.3701 83.0555 27.4279 79.4389 27.4164C75.5093 27.3816 72.9591 24.2543 72.9475 20.8953C72.9475 17.2235 75.8223 14.3162 79.4505 14.3278ZM79.4505 25.8874C82.2209 25.8874 84.2495 23.7794 84.2958 20.9532C84.3306 18.1849 82.0818 15.8799 79.4389 15.8915C76.8076 15.8915 74.5008 18.1733 74.5935 21.0574C74.6747 23.6867 76.5757 25.899 79.4505 25.8874Z" fill="#4FBA5D"/>
<path d="M64.0102 27.4048C59.9879 27.4164 57.4493 24.0574 57.542 20.71C57.6463 17.0846 60.5906 14.2699 64.1029 14.2931C68.0673 14.351 70.7914 17.6058 70.5711 21.2775C70.3973 24.4859 67.8934 27.4395 64.0102 27.4048ZM64.0566 25.8875C66.9661 25.8759 68.9367 23.7446 68.9599 20.9532C68.9947 18.1386 66.769 15.8799 64.0334 15.8915C61.3557 15.8915 59.188 18.1502 59.188 20.9648C59.1996 23.7562 61.2977 25.899 64.0566 25.8875Z" fill="#4FBA5D"/>
<path d="M27.9369 23.2466C27.9369 21.9841 27.8905 20.7215 27.9948 19.459C28.0528 18.6946 28.1571 17.9301 28.4469 17.2235C28.8874 16.1695 29.6756 15.5093 30.6841 15.0228C31.426 14.6753 32.1911 14.5248 32.9909 14.5363C33.5589 14.5479 34.1385 14.5016 34.7065 14.5827C36.5727 14.8143 38.4158 16.0769 38.7288 18.405C38.8563 19.2737 38.9027 20.154 38.9027 21.0111C38.9027 23.0381 38.9027 25.0651 38.9027 27.0921C38.9027 27.3237 38.8447 27.4048 38.6013 27.3932C38.2535 27.3816 37.9058 27.3816 37.558 27.3932C37.3494 27.4048 37.2914 27.3353 37.2914 27.1268C37.2914 24.9724 37.2914 22.818 37.2914 20.6868C37.2914 20.0266 37.2798 19.3664 37.1291 18.7061C36.8278 17.1772 36.1438 16.517 34.6021 16.3201C33.64 16.1811 32.6779 16.1811 31.7042 16.4243C30.916 16.6097 30.3712 17.0498 30.0002 17.7911C29.6872 18.4166 29.5713 19.0768 29.5597 19.7602C29.467 22.1925 29.525 24.6365 29.525 27.0689C29.525 27.3353 29.467 27.4511 29.1772 27.4164C28.8526 27.3816 28.5281 27.4048 28.2035 27.4164C27.9833 27.428 27.9253 27.37 27.9253 27.1384C27.9601 25.8411 27.9369 24.5439 27.9369 23.2466Z" fill="#4FBA5D"/>
<path d="M15.6728 23.6868C15.6728 22.8413 15.7075 22.0189 15.6612 21.1734C15.6032 20.0267 15.8698 18.9726 16.3567 17.9533C17.0522 16.4592 18.1186 15.3935 19.6487 14.7797C20.4138 14.4785 21.1325 14.5712 21.8396 14.9418C21.9787 15.0229 21.9671 15.0808 21.8975 15.1619C21.6773 15.5094 21.457 15.8569 21.2484 16.2043C21.202 16.297 21.1556 16.3665 21.0281 16.3318C20.2863 16.1001 19.7183 16.4244 19.1851 16.8646C17.9447 17.9533 17.4231 19.3433 17.3767 20.988C17.3188 23.0034 17.3304 25.0304 17.3304 27.0342C17.3304 27.2891 17.2724 27.3585 17.0174 27.347C16.6696 27.3122 16.3219 27.3354 15.9741 27.347C15.7655 27.3585 15.7075 27.2891 15.7075 27.0806C15.6728 25.957 15.6728 24.8335 15.6728 23.6868Z" fill="#4FBA5D"/>
<path d="M23.0798 21.1385C23.0798 19.1695 23.0798 17.1888 23.0798 15.2313C23.0798 14.9997 23.161 14.9186 23.3812 14.9302C23.729 14.9418 24.0767 14.9418 24.4245 14.9302C24.6447 14.9186 24.6911 14.9881 24.6911 15.1966C24.6795 16.8761 24.6911 18.5556 24.6911 20.2467C24.6911 22.5053 24.6911 24.8103 24.6911 27.0689C24.6911 27.3237 24.6099 27.3932 24.3665 27.3816C24.0419 27.3701 23.6942 27.3469 23.358 27.3816C23.1262 27.3932 23.0798 27.3006 23.0798 27.1037C23.0798 25.1346 23.0798 23.1308 23.0798 21.1385Z" fill="#4FBA5D"/>
<path d="M57.5421 0C57.716 0 57.8203 0 57.9478 0C60.9037 0 63.8944 0 66.8503 0C67.0705 0 67.1749 0.0463282 67.1633 0.301149C67.1285 0.613884 67.1285 0.926619 67.1633 1.23935C67.1749 1.49417 67.1169 1.58684 66.8387 1.58684C65.1579 1.57525 63.4771 1.57525 61.7847 1.57525C61.0312 1.57525 60.2778 1.57525 59.5243 1.57525C59.4316 1.57525 59.3504 1.61 59.2577 1.52892C58.7129 1.03086 58.1449 0.54439 57.5421 0Z" fill="#4FBA5D"/>
<path d="M23.845 12.463C23.1032 12.463 22.5352 11.8839 22.5352 11.1426C22.5352 10.4245 23.1379 9.83374 23.8566 9.83374C24.5985 9.83374 25.1665 10.436 25.1665 11.1658C25.1897 11.8839 24.5869 12.463 23.845 12.463Z" fill="#4FBA5D"/>
</svg>
